mtllib bench.mtl
o bench
v -2.025001 0.000006 0.825003
v -2.025001 2.000007 0.825003
v -2.025001 0.000006 0.575003
v -2.025001 2.000007 0.575003
v -1.775001 0.000006 0.825002
v -1.775001 2.000007 0.825002
v -1.775001 0.000006 0.575002
v -1.775001 2.000007 0.575002
v -2.025001 0.000006 2.325002
v -2.025001 2.000007 2.325002
v -2.025001 0.000006 2.075002
v -2.025001 2.000007 2.075002
v -1.775001 0.000006 2.325002
v -1.775001 2.000007 2.325002
v -1.775001 0.000006 2.075002
v -1.775001 2.000007 2.075002
v -2.025001 1.875007 0.450003
v -2.025001 1.875007 2.450003
v -2.025001 2.125007 0.450003
v -2.025001 2.125007 2.450003
v -1.775001 1.875006 0.450002
v -1.775001 1.875007 2.450003
v -1.775001 2.125006 0.450002
v -1.775001 2.125007 2.450003
v -2.025001 1.875007 0.200003
v -2.025001 2.125007 0.200003
v -1.775001 1.875006 0.200003
v -1.775001 2.125006 0.200002
v -2.025001 1.950007 0.075003
v -2.025001 2.200007 0.075003
v -1.775001 1.950006 0.075003
v -1.775001 2.200006 0.075002
v -2.025001 2.025007 -0.174997
v -2.025001 2.275007 -0.174997
v -1.775001 2.025006 -0.174998
v -1.775001 2.275006 -0.174998
v -2.025001 2.200007 0.075003
v -1.775001 2.200006 0.075002
v -2.025001 2.275007 -0.174997
v -1.775001 2.275006 -0.174998
v -2.025001 2.750006 0.075003
v -2.025001 4.750006 0.075003
v -2.025001 2.750006 -0.174998
v -2.025001 4.750006 -0.174998
v -1.775001 2.750005 0.075002
v -1.775001 4.750006 0.075002
v -1.775001 2.750005 -0.174998
v -1.775001 4.750006 -0.174998
v -2.025001 2.500006 0.075003
v -2.025001 2.500006 -0.174998
v -1.775001 2.500005 0.075002
v -1.775001 2.500005 -0.174998
v -2.028847 2.200410 0.074459
v -2.028847 2.267106 -0.174454
v -1.771154 2.200410 0.074459
v -1.771154 2.267106 -0.174454
v 3.475000 0.000000 0.825000
v 3.475000 2.000001 0.825000
v 3.475000 0.000000 0.575000
v 3.475000 2.000001 0.575000
v 3.725000 0.000000 0.825000
v 3.725000 2.000001 0.825000
v 3.725000 0.000000 0.575000
v 3.725000 2.000001 0.575000
v 3.475000 0.000000 2.325000
v 3.475000 2.000001 2.325000
v 3.475000 0.000000 2.075000
v 3.475000 2.000001 2.075000
v 3.725000 0.000000 2.325000
v 3.725000 2.000001 2.325000
v 3.725000 0.000000 2.075000
v 3.725000 2.000001 2.075000
v 3.475000 1.875001 0.450000
v 3.475000 1.875001 2.450001
v 3.475000 2.125001 0.450000
v 3.475000 2.125001 2.450001
v 3.725000 1.875001 0.450000
v 3.725000 1.875001 2.450001
v 3.725000 2.125001 0.450000
v 3.725000 2.125001 2.450001
v 3.475000 1.875001 0.200000
v 3.475000 2.125001 0.200000
v 3.725000 1.875001 0.200000
v 3.725000 2.125001 0.200000
v 3.475000 1.950001 0.075000
v 3.475000 2.200001 0.075000
v 3.725000 1.950001 0.075000
v 3.725000 2.200001 0.075000
v 3.475000 2.025001 -0.175000
v 3.475000 2.275001 -0.175000
v 3.725000 2.025001 -0.175000
v 3.725000 2.275001 -0.175000
v 3.475000 2.200001 0.075000
v 3.725000 2.200001 0.075000
v 3.475000 2.275001 -0.175000
v 3.725000 2.275001 -0.175000
v 3.475000 2.750000 0.075000
v 3.475000 4.750000 0.075000
v 3.475000 2.750000 -0.175000
v 3.475000 4.750000 -0.175000
v 3.725000 2.750000 0.075000
v 3.725000 4.750000 0.075000
v 3.725000 2.750000 -0.175000
v 3.725000 4.750000 -0.175000
v 3.475000 2.500000 0.075000
v 3.475000 2.500000 -0.175000
v 3.725000 2.500000 0.075000
v 3.725000 2.500000 -0.175000
v 3.471153 2.200404 0.074457
v 3.471153 2.267100 -0.174456
v 3.728847 2.200404 0.074457
v 3.728847 2.267100 -0.174456
v -2.900001 2.375007 2.575002
v -2.900001 2.375007 1.575002
v -2.900001 2.125007 2.575002
v -2.900001 2.125007 1.575002
v 4.600000 2.375000 2.574999
v 4.600000 2.375000 1.574999
v 4.600000 2.125000 2.574999
v 4.600000 2.125000 1.574999
v -2.900001 2.375006 1.325003
v -2.900001 2.375006 0.325003
v -2.900001 2.125006 1.325003
v -2.900001 2.125006 0.325003
v 4.600000 2.375000 1.324999
v 4.600000 2.375000 0.324999
v 4.600000 2.125000 1.324999
v 4.600000 2.125000 0.324999
v -2.900001 2.625006 0.325003
v -2.900001 3.625006 0.325003
v -2.900001 2.625006 0.075003
v -2.900001 3.625006 0.075003
v 4.600000 2.625000 0.324999
v 4.600000 3.625000 0.324999
v 4.600000 2.625000 0.074999
v 4.600000 3.625000 0.074999
v -2.900001 3.875006 0.325003
v -2.900001 4.875006 0.325003
v -2.900001 3.875006 0.075003
v -2.900001 4.875006 0.075003
v 4.600000 3.875000 0.324999
v 4.600000 4.875000 0.324999
v 4.600000 3.875000 0.074999
v 4.600000 4.875000 0.074999
vn -1.0000 0.0000 0.0000
vn -0.0000 0.0000 -1.0000
vn 1.0000 0.0000 0.0000
vn 0.0000 0.0000 1.0000
vn 0.0000 1.0000 0.0000
vn -0.0000 -1.0000 0.0000
vn -0.0000 -0.9578 -0.2873
vn -0.0000 -0.8575 -0.5145
vn 0.0000 0.8575 0.5145
vn 0.0000 0.9578 0.2873
vn 0.9999 0.0144 0.0019
vn -0.0000 -0.9659 -0.2588
vn -0.9999 0.0144 0.0019
vn 0.0000 -0.0018 1.0000
vn -0.0000 -0.0023 -1.0000
usemtl bench.Couleur_Barres
s off
f 2//1 4//1 3//1 1//1
f 4//2 8//2 7//2 3//2
f 8//3 6//3 5//3 7//3
f 6//4 2//4 1//4 5//4
f 6//5 8//5 4//5 2//5
f 10//1 12//1 11//1 9//1
f 12//2 16//2 15//2 11//2
f 16//3 14//3 13//3 15//3
f 14//4 10//4 9//4 13//4
f 14//5 16//5 12//5 10//5
f 18//1 20//1 19//1 17//1
f 20//5 24//5 23//5 19//5
f 24//3 22//3 21//3 23//3
f 22//6 18//6 17//6 21//6
f 23//3 21//3 27//3 28//3
f 22//4 24//4 20//4 18//4
f 28//3 27//3 31//3 32//3
f 17//1 19//1 26//1 25//1
f 19//5 23//5 28//5 26//5
f 21//6 17//6 25//6 27//6
f 31//7 29//7 33//7 35//7
f 25//1 26//1 30//1 29//1
f 27//8 25//8 29//8 31//8
f 26//9 28//9 32//9 30//9
f 33//2 34//2 36//2 35//2
f 36//4 34//4 39//4 40//4
f 32//3 31//3 35//3 36//3
f 29//1 30//1 34//1 33//1
f 37//10 38//10 40//10 39//10
f 32//4 36//4 40//4 38//4
f 30//4 32//4 38//4 37//4
f 34//4 30//4 37//4 39//4
f 42//1 44//1 43//1 41//1
f 44//2 48//2 47//2 43//2
f 48//3 46//3 45//3 47//3
f 46//4 42//4 41//4 45//4
f 45//4 41//4 49//4 51//4
f 46//5 48//5 44//5 42//5
f 52//11 51//11 55//11 56//11
f 47//3 45//3 51//3 52//3
f 41//1 43//1 50//1 49//1
f 43//2 47//2 52//2 50//2
f 53//12 54//12 56//12 55//12
f 49//13 50//13 54//13 53//13
f 51//14 49//14 53//14 55//14
f 50//15 52//15 56//15 54//15
f 58//1 60//1 59//1 57//1
f 60//2 64//2 63//2 59//2
f 64//3 62//3 61//3 63//3
f 62//4 58//4 57//4 61//4
f 62//5 64//5 60//5 58//5
f 66//1 68//1 67//1 65//1
f 68//2 72//2 71//2 67//2
f 72//3 70//3 69//3 71//3
f 70//4 66//4 65//4 69//4
f 70//5 72//5 68//5 66//5
f 74//1 76//1 75//1 73//1
f 76//5 80//5 79//5 75//5
f 80//3 78//3 77//3 79//3
f 78//6 74//6 73//6 77//6
f 79//3 77//3 83//3 84//3
f 78//4 80//4 76//4 74//4
f 84//3 83//3 87//3 88//3
f 73//1 75//1 82//1 81//1
f 75//5 79//5 84//5 82//5
f 77//6 73//6 81//6 83//6
f 87//7 85//7 89//7 91//7
f 81//1 82//1 86//1 85//1
f 83//8 81//8 85//8 87//8
f 82//9 84//9 88//9 86//9
f 89//2 90//2 92//2 91//2
f 92//4 90//4 95//4 96//4
f 88//3 87//3 91//3 92//3
f 85//1 86//1 90//1 89//1
f 93//10 94//10 96//10 95//10
f 88//4 92//4 96//4 94//4
f 86//4 88//4 94//4 93//4
f 90//4 86//4 93//4 95//4
f 98//1 100//1 99//1 97//1
f 100//2 104//2 103//2 99//2
f 104//3 102//3 101//3 103//3
f 102//4 98//4 97//4 101//4
f 101//4 97//4 105//4 107//4
f 102//5 104//5 100//5 98//5
f 108//11 107//11 111//11 112//11
f 103//3 101//3 107//3 108//3
f 97//1 99//1 106//1 105//1
f 99//2 103//2 108//2 106//2
f 109//12 110//12 112//12 111//12
f 105//13 106//13 110//13 109//13
f 107//14 105//14 109//14 111//14
f 106//15 108//15 112//15 110//15
usemtl bench.Couleur_Planches
f 114//1 116//1 115//1 113//1
f 116//6 120//6 119//6 115//6
f 120//3 118//3 117//3 119//3
f 118//5 114//5 113//5 117//5
f 113//4 115//4 119//4 117//4
f 118//2 120//2 116//2 114//2
f 122//1 124//1 123//1 121//1
f 124//6 128//6 127//6 123//6
f 128//3 126//3 125//3 127//3
f 126//5 122//5 121//5 125//5
f 121//4 123//4 127//4 125//4
f 126//2 128//2 124//2 122//2
f 130//1 132//1 131//1 129//1
f 132//2 136//2 135//2 131//2
f 136//3 134//3 133//3 135//3
f 134//4 130//4 129//4 133//4
f 129//6 131//6 135//6 133//6
f 134//5 136//5 132//5 130//5
f 138//1 140//1 139//1 137//1
f 140//2 144//2 143//2 139//2
f 144//3 142//3 141//3 143//3
f 142//4 138//4 137//4 141//4
f 137//6 139//6 143//6 141//6
f 142//5 144//5 140//5 138//5
